
<svg xmlns="http://www.w3.org/2000/svg" version="1.1" xmlns:xlink="http://www.w3.org/1999/xlink" preserveAspectRatio="none" x="0px" y="0px" width="256px" height="256px" viewBox="0 0 256 256">
<defs>
<g id="Layer2_0_FILL">
<path fill="#664EDC" stroke="none" d="
M 211.9 122.7
L 186.75 97
Q 145.9 74.75 96.9 61.3
L 148.15 17.7 23.7 16.8
Q 16.25 79 12.9 132.8
L 56.95 95.2
Q 91.65 112.05 115.9 138
L 129.05 167.15
Q 158.95 204 143.9 253.4 215.5 227.4 253.25 170.95 242.75 148.5 211.9 122.7 Z"/>
</g>

<g id="Layer1_0_FILL">
<path fill="#0F0E0F" stroke="none" d="
M 139.25 46.75
Q 137.9 46.3 135.15 48.45 132.65 50.4 130.05 52.9 128.3 54.4 118.55 65.2 118.25 65.7 117.65 66.25 116 68.1 114.2 70.25
L 142.95 45.95
Q 140.45 47.15 139.25 46.75
M 217.75 42
Q 216.2 41.65 214.2 41.75 219.75 45.35 222.9 52.1 226.35 59.15 225.95 61.85 225.7 64.55 219.55 78.45 215.15 90.75 206.45 88.35 204.45 87.75 196.85 82.35 196.6 82.1 195.95 82 200.65 78 200.45 71.85 196.5 61.85 188.1 54.3
L 185.55 56.45
Q 175.35 68.4 162.4 78.9 161.05 79.85 159.8 80.8 156.7 76.85 152.65 73.4 144.15 66.15 131.2 61.4 135.9 52.55 142.95 45.95
L 114.2 70.25
Q 114.1 70.35 114 70.45
L 114 70.7 113.6 70.7
Q 112.75 71.65 111.75 72.95
L 52.75 137.05
Q 52 138.1 41.85 143.3 63.55 150.3 73.15 164.75 77.85 172.1 79.3 181.35
L 79.3 184.05
Q 85.6 183.4 91.95 182.25 111.6 178.9 128.95 173.6
L 102.6 165.75 114.65 136.8 150.65 112.65 134.85 147.5 166.85 155.7
Q 171.55 152.7 176.4 149.35 189.9 140.05 212.15 124.5 231.75 112.45 233 111.05 238.45 101 239.35 99.15
L 239.35 98.75
Q 238.35 93.25 237.45 88.05 237.25 87.5 237.1 87.1 235.1 76.05 235.2 75 230.5 47.6 224.35 45.2 219.75 42.75 217.75 42 Z"/>

<path fill="#F5F0F0" stroke="none" d="
M 241.25 105.95
Q 241.25 103.5 239.35 99.15 238.45 101 233 111.05 231.75 112.45 212.15 124.5 189.9 140.05 176.4 149.35 171.55 152.7 166.85 155.7
L 134.85 147.5 150.65 112.65 114.65 136.8 102.6 165.75 128.95 173.6
Q 111.6 178.9 91.95 182.25 85.6 183.4 79.3 184.05
L 79.3 181.35
Q 77.85 172.1 73.15 164.75 63.55 150.3 41.85 143.3 40.6 143.7 39.25 144.5 36.15 146.85 33.55 148.9
L 32.55 147.7
Q 14.1 158.3 13.2 166.5 13.2 166.6 13.2 166.7 9.85 178.9 10.25 191.2 11.6 197.75 16.9 202.75 28.4 211.6 42.5 213.2 66.45 214.6 87.55 213.2 105 211.6 120.1 206.85 137.9 202 148.95 192.8
L 168.55 176.2 197.65 154.85 226.45 139.75
Q 235.45 133.8 238.25 127.1 239.35 122.05 240.05 116.85 240.65 111.55 241.25 105.95
M 174.85 47.05
L 165 41
Q 163.85 40.05 161.95 38.95 158.7 36.9 155.55 37.65 152.55 38.65 148.2 42.5
L 144.8 44.8
Q 143.65 45.55 142.95 45.95 135.9 52.55 131.2 61.4 144.15 66.15 152.65 73.4 156.7 76.85 159.8 80.8 161.05 79.85 162.4 78.9 175.35 68.4 185.55 56.45
L 185.3 56.35 180.85 50.4
Q 178.4 49.1 174.85 47.05 Z"/>

<path fill="#070708" stroke="none" d="
M 214.2 41.75
Q 212.15 41.85 209.8 42.5 205.8 43.7 196.95 48.35 188.8 52.55 187.1 52.75 186.75 52.75 186.25 52.75 187.1 53.4 187.8 54.05 187.9 54.15 188.1 54.3 196.5 61.85 200.45 71.85 200.65 78 195.95 82 196.6 82.1 196.85 82.35 204.45 87.75 206.45 88.35 215.15 90.75 219.55 78.45 225.7 64.55 225.95 61.85 226.35 59.15 222.9 52.1 219.75 45.35 214.2 41.75 Z"/>
</g>

<path id="Layer1_0_1_STROKES" stroke="#0F0E0F" stroke-width="5" stroke-linejoin="round" stroke-linecap="round" fill="none" d="
M 239.35 99.15
L 239.35 98.75
Q 238.35 93.25 237.45 88.05 237.25 87.5 237.1 87.1 235.1 76.05 235.2 75 230.5 47.6 224.35 45.2 219.75 42.75 217.75 42 216.2 41.65 214.2 41.75 219.75 45.35 222.9 52.1 226.35 59.15 225.95 61.85 225.7 64.55 219.55 78.45 215.15 90.75 206.45 88.35 204.45 87.75 196.85 82.35 196.6 82.1 195.95 82 200.65 78 200.45 71.85 196.5 61.85 188.1 54.3
M 114.2 70.25
L 142.95 45.95
M 114 70.45
L 114 70.7 113.6 70.7
Q 112.75 71.65 111.75 72.95
L 52.75 137.05
Q 52 138.1 41.85 143.3
M 239.35 99.15
Q 241.25 103.5 241.25 105.95 240.65 111.55 240.05 116.85 239.35 122.05 238.25 127.1 235.45 133.8 226.45 139.75
L 197.65 154.85 168.55 176.2 148.95 192.8
Q 137.9 202 120.1 206.85 105 211.6 87.55 213.2 66.45 214.6 42.5 213.2 28.4 211.6 16.9 202.75 11.6 197.75 10.25 191.2 9.85 178.9 13.2 166.7 13.2 166.6 13.2 166.5 14.1 158.3 32.55 147.7 36.25 146 39.25 144.5 40.6 143.7 41.85 143.3
M 214.2 41.75
Q 212.15 41.85 209.8 42.5 205.8 43.7 196.95 48.35 188.8 52.55 187.1 52.75 186.75 52.75 186.25 52.75
M 180.85 50.4
Q 178.4 49.1 174.85 47.05
L 165 41
Q 163.85 40.05 161.95 38.95 158.7 36.9 155.55 37.65 152.55 38.65 148.2 42.5
L 144.8 44.8
Q 143.65 45.55 142.95 45.95
M 113.6 70.7
L 114.2 70.25
M 186.25 52.75
Q 184.65 52.35 180.85 50.4"/>
</defs>

<g transform="matrix( 1, 0, 0, 1, 0,0) ">
<use xlink:href="#Layer2_0_FILL"/>
</g>

<g transform="matrix( 1, 0, 0, 1, 0,0) ">
<use xlink:href="#Layer1_0_FILL"/>

<use xlink:href="#Layer1_0_1_STROKES"/>
</g>
</svg>
